<svg width="80" height="47" viewBox="0 0 80 47" fill="none" xmlns="http://www.w3.org/2000/svg">
<path d="M60.23 22.13C60.23 23.4367 59.915 24.6617 59.285 25.805C58.6783 26.9483 57.71 27.87 56.38 28.57C55.0733 29.27 53.4167 29.62 51.41 29.62H47.315V39H42.415V14.57H51.41C53.3 14.57 54.91 14.8967 56.24 15.55C57.57 16.2033 58.5617 17.1017 59.215 18.245C59.8917 19.3883 60.23 20.6833 60.23 22.13ZM51.2 25.665C52.5533 25.665 53.5567 25.3617 54.21 24.755C54.8633 24.125 55.19 23.25 55.19 22.13C55.19 19.75 53.86 18.56 51.2 18.56H47.315V25.665H51.2ZM78.7939 14.57V18.525H68.6089V24.79H76.4139V28.675H68.6089V39H63.7089V14.57H78.7939Z" fill="url(#paint0_linear)"/>
<g clip-path="url(#clip0)">
<path d="M10.7682 20.9382V32.9515C10.7608 33.2354 10.9397 33.4909 11.2091 33.5811L20.001 36.4194C20.0653 36.4404 20.1321 36.4514 20.1996 36.4514C20.2678 36.4514 20.3356 36.4404 20.4002 36.4194L29.1824 33.5811C29.4515 33.4909 29.6301 33.2354 29.622 32.9515V20.9382C29.6298 20.6542 29.4508 20.3987 29.1814 20.3086L20.3892 17.4706C20.2587 17.428 20.1182 17.428 19.9877 17.4706L11.2065 20.3089C10.9378 20.3994 10.7598 20.6549 10.7682 20.9382V20.9382ZM12.0913 21.8468L19.4509 24.2317V34.8544L12.0913 32.4699V21.8468ZM20.774 34.908V24.2853L28.299 21.8471V32.4699L20.774 34.908ZM20.1951 18.7953L26.8409 20.9382L20.1951 23.0817L13.5494 20.9382L20.1951 18.7953Z" fill="#3EC13E"/>
<path d="M0.142228 34.0558C0.141582 35.0523 0.673913 35.9735 1.53766 36.4703C2.40173 36.9671 3.46542 36.9639 4.32659 36.4622L10.6244 42.7614C10.0517 43.6994 10.0847 44.8871 10.7084 45.7922C11.3325 46.6977 12.4304 47.1508 13.5112 46.9496C14.5921 46.748 15.4529 45.9295 15.7091 44.8603H24.5158C24.7716 45.9334 25.6366 46.7545 26.7217 46.9535C27.8067 47.1525 28.9069 46.6925 29.5271 45.78C30.1473 44.8678 30.1705 43.6755 29.5862 42.7397L35.822 36.4661C36.7639 37.0101 37.9365 36.9561 38.8241 36.3275C39.7118 35.6989 40.1521 34.611 39.9515 33.5418C39.7512 32.473 38.9466 31.6186 37.8913 31.3544V22.5341C38.9501 22.2702 39.757 21.4119 39.9557 20.3388C40.154 19.2658 39.7076 18.1756 38.8131 17.5502C37.919 16.9249 36.742 16.8797 35.802 17.4343L29.6014 11.2346C30.1737 10.2963 30.1401 9.10885 29.5161 8.20376C28.8917 7.29899 27.7938 6.84612 26.7129 7.04801C25.6325 7.24957 24.7716 8.06809 24.5161 9.13728H15.7094C15.4548 8.07165 14.5992 7.25409 13.5232 7.04865C12.4469 6.84321 11.3503 7.28801 10.721 8.18502C10.0921 9.08204 10.0475 10.2646 10.6073 11.2062L4.34726 17.4382C3.41729 16.8868 2.2525 16.9233 1.35903 17.5325C0.465567 18.1414 0.00559164 19.2125 0.179052 20.2797C0.352512 21.3467 1.12808 22.2169 2.16819 22.5118V31.3776C0.973673 31.7223 0.149011 32.8125 0.142228 34.0558V34.0558ZM1.4653 34.0558C1.46918 33.2615 2.10391 32.6138 2.89821 32.5941H2.92728C3.73482 32.5941 4.38925 33.2489 4.38925 34.0561C4.38925 34.8636 3.7345 35.518 2.92696 35.518C2.11974 35.5177 1.4653 34.8633 1.4653 34.0558V34.0558ZM13.0009 45.674C12.1937 45.674 11.5389 45.0196 11.5389 44.212C11.5392 43.4045 12.1937 42.7501 13.0009 42.7501C13.8084 42.7501 14.4629 43.4048 14.4629 44.212C14.4619 45.0193 13.8081 45.673 13.0009 45.674ZM27.224 45.674C26.4167 45.674 25.762 45.0196 25.762 44.212C25.7623 43.4045 26.4167 42.7501 27.224 42.7501C28.0315 42.7501 28.6859 43.4048 28.6859 44.212C28.685 45.0193 28.0312 45.673 27.224 45.674ZM38.6768 34.0558C38.6768 34.8633 38.0224 35.5177 37.2152 35.5177C36.4076 35.5177 35.7532 34.8633 35.7532 34.0558C35.7532 33.2485 36.4076 32.5938 37.2149 32.5938C38.0221 32.5947 38.6759 33.2489 38.6768 34.0558ZM38.6768 19.8327C38.6768 20.6402 38.0224 21.2947 37.2152 21.2947C36.4076 21.2947 35.7532 20.6402 35.7532 19.8327C35.7532 19.0255 36.4076 18.3707 37.2149 18.3707C38.0221 18.3717 38.6759 19.0258 38.6768 19.8327ZM27.224 8.3236C28.0315 8.3236 28.6859 8.97835 28.6859 9.78557C28.6859 10.5931 28.0315 11.2475 27.224 11.2475C26.4167 11.2475 25.762 10.5931 25.762 9.78557C25.7633 8.97868 26.4171 8.32457 27.224 8.3236ZM15.7029 10.4604H24.5222C24.7361 11.3183 25.3446 12.0234 26.1619 12.3603C26.9791 12.6976 27.9078 12.6262 28.6643 12.1685L34.8543 18.3575C34.3785 19.1172 34.2977 20.0598 34.6378 20.8893C34.9776 21.7188 35.6964 22.3335 36.5682 22.5412V31.3473C35.6922 31.5556 34.9712 32.1755 34.6333 33.0101C34.2954 33.8448 34.3823 34.7916 34.8672 35.5507L28.6401 41.8153C27.8836 41.3672 26.9597 41.3033 26.1486 41.6424C25.3375 41.9816 24.7345 42.6842 24.5222 43.5373H15.7029C15.4891 42.68 14.8812 41.9748 14.0643 41.6379C13.2477 41.3007 12.3193 41.3711 11.5628 41.8282L5.27981 35.5436C5.76918 34.7716 5.848 33.8083 5.49106 32.9669C5.13413 32.1254 4.38667 31.513 3.49127 31.3282V22.5602C4.38279 22.3764 5.12767 21.7685 5.48686 20.9322C5.84573 20.0959 5.77306 19.1369 5.29208 18.3642L11.5334 12.151C12.289 12.621 13.2238 12.7011 14.0484 12.3668C14.8728 12.0325 15.4878 11.3238 15.7029 10.4604V10.4604ZM13.0009 8.3236C13.8084 8.3236 14.4629 8.97835 14.4629 9.78557C14.4629 10.5931 13.8084 11.2475 13.0009 11.2475C12.1937 11.2475 11.5389 10.5931 11.5389 9.78557C11.5402 8.97868 12.194 8.32457 13.0009 8.3236ZM1.4653 19.8327C1.4653 19.0251 2.12006 18.3707 2.92728 18.3707C3.73482 18.371 4.38925 19.0255 4.38925 19.8327C4.38925 20.6402 3.73482 21.2947 2.92728 21.2947C2.12038 21.2937 1.46627 20.6396 1.4653 19.8327Z" fill="#0172B7"/>
</g>
<defs>
<linearGradient id="paint0_linear" x1="60" y1="0" x2="60" y2="39" gradientUnits="userSpaceOnUse">
<stop stop-color="#0172B7"/>
<stop offset="1" stop-color="#3EC13E"/>
</linearGradient>
<clipPath id="clip0">
<rect width="40" height="40" fill="white" transform="translate(0 7)"/>
</clipPath>
</defs>
</svg>
